<mxfile host="Electron" modified="2024-10-23T07:06:32.434Z" agent="Mozilla/5.0 (Macintosh; Intel Mac OS X 10_15_7) AppleWebKit/537.36 (KHTML, like Gecko) draw.io/22.0.3 Chrome/114.0.5735.289 Electron/25.8.4 Safari/537.36" etag="kdN_UQSHJJP6bHGCBDM7" version="22.0.3" type="device">
  <diagram name="Page-1" id="fq80mJ8dPhqj6xiURbia">
    <mxGraphModel dx="954" dy="727" grid="1" gridSize="10" guides="1" tooltips="1" connect="1" arrows="1" fold="1" page="1" pageScale="1" pageWidth="827" pageHeight="1169" math="0" shadow="0">
      <root>
        <mxCell id="0" />
        <mxCell id="1" parent="0" />
        <mxCell id="V2r5kOMQGoURC8a6TR9E-11" style="edgeStyle=orthogonalEdgeStyle;rounded=0;orthogonalLoop=1;jettySize=auto;html=1;" edge="1" parent="1" source="V2r5kOMQGoURC8a6TR9E-3">
          <mxGeometry relative="1" as="geometry">
            <mxPoint x="340" y="355" as="targetPoint" />
          </mxGeometry>
        </mxCell>
        <mxCell id="V2r5kOMQGoURC8a6TR9E-3" value="" style="rounded=0;whiteSpace=wrap;html=1;" vertex="1" parent="1">
          <mxGeometry x="40" y="190" width="220" height="330" as="geometry" />
        </mxCell>
        <mxCell id="V2r5kOMQGoURC8a6TR9E-4" value="&lt;font style=&quot;font-size: 16px;&quot;&gt;Счета&lt;/font&gt;" style="rounded=1;whiteSpace=wrap;html=1;fillColor=#fff2cc;strokeColor=#d6b656;" vertex="1" parent="1">
          <mxGeometry x="100" y="200" width="100" height="40" as="geometry" />
        </mxCell>
        <mxCell id="V2r5kOMQGoURC8a6TR9E-6" value="Карты" style="shape=process;whiteSpace=wrap;html=1;backgroundOutline=1;fillColor=#d5e8d4;strokeColor=#82b366;" vertex="1" parent="1">
          <mxGeometry x="60" y="260" width="90" height="30" as="geometry" />
        </mxCell>
        <mxCell id="V2r5kOMQGoURC8a6TR9E-7" value="Счета" style="shape=process;whiteSpace=wrap;html=1;backgroundOutline=1;fillColor=#e1d5e7;strokeColor=#9673a6;" vertex="1" parent="1">
          <mxGeometry x="60" y="310" width="90" height="30" as="geometry" />
        </mxCell>
        <mxCell id="V2r5kOMQGoURC8a6TR9E-8" value="Вклады" style="shape=process;whiteSpace=wrap;html=1;backgroundOutline=1;fillColor=#dae8fc;strokeColor=#6c8ebf;" vertex="1" parent="1">
          <mxGeometry x="60" y="360" width="90" height="30" as="geometry" />
        </mxCell>
        <mxCell id="V2r5kOMQGoURC8a6TR9E-9" value="Фильтровать" style="rounded=1;whiteSpace=wrap;html=1;fillColor=#ffe6cc;strokeColor=#d79b00;" vertex="1" parent="1">
          <mxGeometry x="50" y="480" width="90" height="30" as="geometry" />
        </mxCell>
        <mxCell id="V2r5kOMQGoURC8a6TR9E-10" value="Добавить счет" style="rounded=1;whiteSpace=wrap;html=1;fillColor=#f5f5f5;fontColor=#333333;strokeColor=#666666;" vertex="1" parent="1">
          <mxGeometry x="160" y="480" width="90" height="30" as="geometry" />
        </mxCell>
        <mxCell id="V2r5kOMQGoURC8a6TR9E-25" value="" style="edgeStyle=orthogonalEdgeStyle;rounded=0;orthogonalLoop=1;jettySize=auto;html=1;" edge="1" parent="1" source="V2r5kOMQGoURC8a6TR9E-12" target="V2r5kOMQGoURC8a6TR9E-24">
          <mxGeometry relative="1" as="geometry" />
        </mxCell>
        <mxCell id="V2r5kOMQGoURC8a6TR9E-12" value="" style="rounded=0;whiteSpace=wrap;html=1;" vertex="1" parent="1">
          <mxGeometry x="340" y="190" width="220" height="330" as="geometry" />
        </mxCell>
        <mxCell id="V2r5kOMQGoURC8a6TR9E-13" value="&lt;font style=&quot;font-size: 16px;&quot;&gt;Транзакции счета [название счета]&lt;/font&gt;" style="rounded=1;whiteSpace=wrap;html=1;fillColor=#d5e8d4;strokeColor=#82b366;" vertex="1" parent="1">
          <mxGeometry x="370" y="200" width="170" height="60" as="geometry" />
        </mxCell>
        <mxCell id="V2r5kOMQGoURC8a6TR9E-14" value="Сортировать" style="rounded=0;whiteSpace=wrap;html=1;fillColor=#f8cecc;strokeColor=#b85450;" vertex="1" parent="1">
          <mxGeometry x="460" y="280" width="86" height="30" as="geometry" />
        </mxCell>
        <mxCell id="V2r5kOMQGoURC8a6TR9E-15" value="Показать все" style="rounded=0;whiteSpace=wrap;html=1;fillColor=#fff2cc;strokeColor=#d6b656;" vertex="1" parent="1">
          <mxGeometry x="360" y="280" width="86" height="30" as="geometry" />
        </mxCell>
        <mxCell id="V2r5kOMQGoURC8a6TR9E-16" value="&lt;font style=&quot;font-size: 15px;&quot;&gt;Список транзакций&lt;/font&gt;" style="rounded=0;whiteSpace=wrap;html=1;fillColor=#dae8fc;strokeColor=#6c8ebf;" vertex="1" parent="1">
          <mxGeometry x="354" y="325" width="120" height="60" as="geometry" />
        </mxCell>
        <mxCell id="V2r5kOMQGoURC8a6TR9E-23" value="Фильтры&lt;br&gt;(дата, категория, сумма)" style="rounded=1;whiteSpace=wrap;html=1;fillColor=#f5f5f5;fontColor=#333333;strokeColor=#666666;" vertex="1" parent="1">
          <mxGeometry x="480" y="325" width="70" height="130" as="geometry" />
        </mxCell>
        <mxCell id="V2r5kOMQGoURC8a6TR9E-24" value="" style="rounded=0;whiteSpace=wrap;html=1;" vertex="1" parent="1">
          <mxGeometry x="640" y="190" width="220" height="330" as="geometry" />
        </mxCell>
        <mxCell id="V2r5kOMQGoURC8a6TR9E-26" value="Экран аналитики расходов:" style="rounded=1;whiteSpace=wrap;html=1;fillColor=#f8cecc;strokeColor=#b85450;" vertex="1" parent="1">
          <mxGeometry x="670" y="200" width="170" height="60" as="geometry" />
        </mxCell>
        <mxCell id="V2r5kOMQGoURC8a6TR9E-27" value="Выбор периода времени для анализа" style="rounded=0;whiteSpace=wrap;html=1;fillColor=#dae8fc;strokeColor=#6c8ebf;" vertex="1" parent="1">
          <mxGeometry x="685" y="275" width="130" height="35" as="geometry" />
        </mxCell>
        <mxCell id="V2r5kOMQGoURC8a6TR9E-28" value="Доходы" style="rounded=0;whiteSpace=wrap;html=1;fillColor=#d5e8d4;strokeColor=#82b366;" vertex="1" parent="1">
          <mxGeometry x="660" y="320" width="80" height="20" as="geometry" />
        </mxCell>
        <mxCell id="V2r5kOMQGoURC8a6TR9E-29" value="Расходы" style="rounded=0;whiteSpace=wrap;html=1;fillColor=#ffe6cc;strokeColor=#d79b00;" vertex="1" parent="1">
          <mxGeometry x="760" y="320" width="80" height="20" as="geometry" />
        </mxCell>
        <mxCell id="V2r5kOMQGoURC8a6TR9E-30" value="График распределения расходов по категориям" style="whiteSpace=wrap;html=1;aspect=fixed;fillColor=#e1d5e7;strokeColor=#9673a6;" vertex="1" parent="1">
          <mxGeometry x="650" y="370" width="90" height="90" as="geometry" />
        </mxCell>
        <mxCell id="V2r5kOMQGoURC8a6TR9E-31" value="Таблица с суммами по категориям" style="whiteSpace=wrap;html=1;aspect=fixed;fillColor=#f5f5f5;fontColor=#333333;strokeColor=#666666;" vertex="1" parent="1">
          <mxGeometry x="755" y="370" width="90" height="90" as="geometry" />
        </mxCell>
        <mxCell id="V2r5kOMQGoURC8a6TR9E-32" value="Применить фильтры" style="rounded=0;whiteSpace=wrap;html=1;fillColor=#e1d5e7;strokeColor=#9673a6;" vertex="1" parent="1">
          <mxGeometry x="360" y="480" width="76" height="30" as="geometry" />
        </mxCell>
        <mxCell id="V2r5kOMQGoURC8a6TR9E-33" value="Сбросить фильтры" style="rounded=0;whiteSpace=wrap;html=1;fillColor=#fff2cc;strokeColor=#d6b656;" vertex="1" parent="1">
          <mxGeometry x="465" y="480" width="76" height="30" as="geometry" />
        </mxCell>
      </root>
    </mxGraphModel>
  </diagram>
</mxfile>
